#N canvas 12 23 724 526 10;
#X declare -lib mrpeach;
#X obj 32 27 import mrpeach;
#X obj 152 355 udpsend;
#X msg 171 315 connect 127.0.0.1 12000;
#X obj 153 281 packOSC;
#X msg 161 227 send /x \$1;
#X floatatom 163 196 5 0 0 0 - - -;
#X floatatom 275 192 5 0 0 0 - - -;
#X msg 273 223 send /y \$1;
#X floatatom 371 203 5 0 0 0 - - -;
#X msg 370 227 send /t \$1;
#X obj 159 13 osc~;
#X obj 161 44 snapshot~;
#X obj 256 -40 metro 30;
#X obj 256 -62 tgl 15 0 empty empty empty 17 7 0 10 -262144 -1 -1 1
1;
#X obj 162 70 * 200;
#X floatatom 164 98 5 0 0 0 - - -;
#X floatatom 165 -9 5 0 0 0 - - -;
#X obj 163 123 + 200;
#X obj 163 151 i;
#X obj 271 30 osc~;
#X obj 273 61 snapshot~;
#X obj 274 87 * 200;
#X floatatom 276 115 5 0 0 0 - - -;
#X floatatom 277 8 5 0 0 0 - - -;
#X obj 275 140 + 200;
#X obj 276 166 i;
#X obj 368 41 osc~;
#X obj 370 72 snapshot~;
#X floatatom 373 126 5 0 0 0 - - -;
#X floatatom 374 19 5 0 0 0 - - -;
#X obj 370 177 i;
#X obj 371 98 * 50;
#X obj 372 151 + 25;
#X obj 9 138 udpreceive 12001;
#X obj 9 174 unpackOSC;
#X obj 12 215 route /mouseX;
#X floatatom 15 253 5 0 0 0 - - -;
#X connect 2 0 1 0;
#X connect 3 0 1 0;
#X connect 4 0 3 0;
#X connect 5 0 4 0;
#X connect 6 0 7 0;
#X connect 7 0 3 0;
#X connect 8 0 9 0;
#X connect 9 0 3 0;
#X connect 10 0 11 0;
#X connect 11 0 14 0;
#X connect 12 0 11 0;
#X connect 12 0 20 0;
#X connect 12 0 27 0;
#X connect 13 0 12 0;
#X connect 14 0 15 0;
#X connect 15 0 17 0;
#X connect 16 0 10 0;
#X connect 17 0 18 0;
#X connect 18 0 5 0;
#X connect 19 0 20 0;
#X connect 20 0 21 0;
#X connect 21 0 22 0;
#X connect 22 0 24 0;
#X connect 23 0 19 0;
#X connect 24 0 25 0;
#X connect 25 0 6 0;
#X connect 26 0 27 0;
#X connect 27 0 31 0;
#X connect 28 0 32 0;
#X connect 29 0 26 0;
#X connect 30 0 8 0;
#X connect 31 0 28 0;
#X connect 32 0 30 0;
#X connect 33 0 34 0;
#X connect 34 0 35 0;
#X connect 35 0 36 0;
