#N canvas 0 23 1248 703 10;
#X obj 53 50 metro 200;
#X floatatom 104 25 5 0 0 0 - - -;
#X obj 53 26 tgl 15 0 empty empty empty 17 7 0 10 -262144 -1 -1 0 1
;
#X obj 53 73 bng 15 250 50 0 empty empty empty 17 7 0 10 -262144 -1
-1;
#X obj 53 94 counter 7;
#X floatatom 53 119 5 0 0 0 - - -;
#X obj 53 143 select 0 1 2 3 4 5 6 7;
#X obj 52 172 bng 15 250 50 0 empty empty empty 17 7 0 10 -262144 -1
-1;
#X obj 72 172 bng 15 250 50 0 empty empty empty 17 7 0 10 -262144 -1
-1;
#X obj 92 172 bng 15 250 50 0 empty empty empty 17 7 0 10 -262144 -1
-1;
#X obj 111 172 bng 15 250 50 0 empty empty empty 17 7 0 10 -262144
-1 -1;
#X obj 131 172 bng 15 250 50 0 empty empty empty 17 7 0 10 -262144
-1 -1;
#X obj 151 172 bng 15 250 50 0 empty empty empty 17 7 0 10 -262144
-1 -1;
#X obj 172 172 bng 15 250 50 0 empty empty empty 17 7 0 10 -262144
-1 -1;
#X obj 192 172 bng 15 250 50 0 empty empty empty 17 7 0 10 -262144
-1 -1;
#X floatatom 53 401 5 0 0 0 - - -;
#X obj 52 442 osc~;
#X obj 51 616 dac~;
#X floatatom 871 157 5 0 0 0 - - -;
#X obj 871 194 * 1;
#X floatatom 876 284 5 0 0 0 - - -;
#X obj 911 195 * 6;
#X obj 910 222 / 5;
#X floatatom 915 284 5 0 0 0 - - -;
#X floatatom 953 284 5 0 0 0 - - -;
#X obj 949 195 * 4;
#X obj 948 222 / 3;
#X floatatom 995 283 5 0 0 0 - - -;
#X obj 991 194 * 3;
#X obj 990 221 / 2;
#X floatatom 1044 281 5 0 0 0 - - -;
#X obj 1040 192 * 9;
#X obj 1039 219 / 5;
#X obj 1077 195 * 2;
#X floatatom 1087 279 5 0 0 0 - - -;
#X obj 854 309 i;
#X obj 903 310 i;
#X obj 942 309 i;
#X obj 986 312 i;
#X obj 1029 310 i;
#X obj 1069 309 i;
#X floatatom 883 382 5 0 0 0 - - -;
#X obj 792 188 random 6;
#X obj 795 226 select 0 1 2 3 4 5;
#X obj 789 150 bng 15 250 50 0 empty empty empty 17 7 0 10 -262144
-1 -1;
#N canvas 432 120 542 403 penta 0;
#X floatatom -1483 69 5 0 0 0 - - -;
#X obj -1483 106 * 1;
#X floatatom -1478 196 5 0 0 0 - - -;
#X obj -1443 107 * 6;
#X obj -1444 134 / 5;
#X floatatom -1439 196 5 0 0 0 - - -;
#X floatatom -1401 196 5 0 0 0 - - -;
#X obj -1405 107 * 4;
#X obj -1406 134 / 3;
#X floatatom -1359 195 5 0 0 0 - - -;
#X obj -1363 106 * 3;
#X obj -1364 133 / 2;
#X floatatom -1310 193 5 0 0 0 - - -;
#X obj -1314 104 * 9;
#X obj -1315 131 / 5;
#X obj -1277 107 * 2;
#X floatatom -1267 191 5 0 0 0 - - -;
#X obj -1500 221 i;
#X obj -1451 222 i;
#X obj -1412 221 i;
#X obj -1368 224 i;
#X obj -1325 222 i;
#X obj -1285 221 i;
#X floatatom -1471 294 5 0 0 0 - - -;
#X obj -1619 91 random 6;
#X obj -1616 129 select 0 1 2 3 4 5;
#X obj -1622 53 bng 15 250 50 0 empty empty empty 17 7 0 10 -262144
-1 -1;
#X obj -1630 20 inlet;
#X obj -1589 333 outlet;
#X obj -1479 42 r foo;
#X connect 0 0 1 0;
#X connect 0 0 3 0;
#X connect 0 0 7 0;
#X connect 0 0 10 0;
#X connect 0 0 13 0;
#X connect 0 0 15 0;
#X connect 1 0 2 0;
#X connect 2 0 17 1;
#X connect 3 0 4 0;
#X connect 4 0 5 0;
#X connect 5 0 18 1;
#X connect 6 0 19 1;
#X connect 7 0 8 0;
#X connect 8 0 6 0;
#X connect 9 0 20 1;
#X connect 10 0 11 0;
#X connect 11 0 9 0;
#X connect 12 0 21 1;
#X connect 13 0 14 0;
#X connect 14 0 12 0;
#X connect 15 0 16 0;
#X connect 16 0 22 1;
#X connect 17 0 23 0;
#X connect 18 0 23 0;
#X connect 19 0 23 0;
#X connect 20 0 23 0;
#X connect 21 0 23 0;
#X connect 22 0 23 0;
#X connect 23 0 28 0;
#X connect 24 0 25 0;
#X connect 25 0 17 0;
#X connect 25 1 18 0;
#X connect 25 2 19 0;
#X connect 25 3 20 0;
#X connect 25 4 21 0;
#X connect 25 5 22 0;
#X connect 26 0 24 0;
#X connect 27 0 26 0;
#X connect 29 0 0 0;
#X restore 67 236 pd penta;
#X obj 67 215 bng 15 250 50 0 empty empty empty 17 7 0 10 -262144 -1
-1;
#X floatatom 67 259 5 0 0 0 - - -;
#X obj 52 283 f;
#X obj 129 283 f;
#X obj 214 283 f;
#X obj 292 283 f;
#X obj 368 283 f;
#X obj 453 283 f;
#X obj 539 283 f;
#X obj 616 283 f;
#X obj 225 42 send foo;
#X floatatom 223 16 5 0 0 0 - - -;
#N canvas 432 120 542 403 penta 0;
#X floatatom -1483 69 5 0 0 0 - - -;
#X obj -1483 106 * 1;
#X floatatom -1478 196 5 0 0 0 - - -;
#X obj -1443 107 * 6;
#X obj -1444 134 / 5;
#X floatatom -1439 196 5 0 0 0 - - -;
#X floatatom -1401 196 5 0 0 0 - - -;
#X obj -1405 107 * 4;
#X obj -1406 134 / 3;
#X floatatom -1359 195 5 0 0 0 - - -;
#X obj -1363 106 * 3;
#X obj -1364 133 / 2;
#X floatatom -1310 193 5 0 0 0 - - -;
#X obj -1314 104 * 9;
#X obj -1315 131 / 5;
#X obj -1277 107 * 2;
#X floatatom -1267 191 5 0 0 0 - - -;
#X obj -1500 221 i;
#X obj -1451 222 i;
#X obj -1412 221 i;
#X obj -1368 224 i;
#X obj -1325 222 i;
#X obj -1285 221 i;
#X floatatom -1471 294 5 0 0 0 - - -;
#X obj -1619 91 random 6;
#X obj -1616 129 select 0 1 2 3 4 5;
#X obj -1622 53 bng 15 250 50 0 empty empty empty 17 7 0 10 -262144
-1 -1;
#X obj -1630 20 inlet;
#X obj -1589 333 outlet;
#X obj -1479 42 r foo;
#X connect 0 0 1 0;
#X connect 0 0 3 0;
#X connect 0 0 7 0;
#X connect 0 0 10 0;
#X connect 0 0 13 0;
#X connect 0 0 15 0;
#X connect 1 0 2 0;
#X connect 2 0 17 1;
#X connect 3 0 4 0;
#X connect 4 0 5 0;
#X connect 5 0 18 1;
#X connect 6 0 19 1;
#X connect 7 0 8 0;
#X connect 8 0 6 0;
#X connect 9 0 20 1;
#X connect 10 0 11 0;
#X connect 11 0 9 0;
#X connect 12 0 21 1;
#X connect 13 0 14 0;
#X connect 14 0 12 0;
#X connect 15 0 16 0;
#X connect 16 0 22 1;
#X connect 17 0 23 0;
#X connect 18 0 23 0;
#X connect 19 0 23 0;
#X connect 20 0 23 0;
#X connect 21 0 23 0;
#X connect 22 0 23 0;
#X connect 23 0 28 0;
#X connect 24 0 25 0;
#X connect 25 0 17 0;
#X connect 25 1 18 0;
#X connect 25 2 19 0;
#X connect 25 3 20 0;
#X connect 25 4 21 0;
#X connect 25 5 22 0;
#X connect 26 0 24 0;
#X connect 27 0 26 0;
#X connect 29 0 0 0;
#X restore 144 236 pd penta;
#X obj 144 215 bng 15 250 50 0 empty empty empty 17 7 0 10 -262144
-1 -1;
#X floatatom 144 259 5 0 0 0 - - -;
#N canvas 432 120 542 403 penta 0;
#X floatatom -1483 69 5 0 0 0 - - -;
#X obj -1483 106 * 1;
#X floatatom -1478 196 5 0 0 0 - - -;
#X obj -1443 107 * 6;
#X obj -1444 134 / 5;
#X floatatom -1439 196 5 0 0 0 - - -;
#X floatatom -1401 196 5 0 0 0 - - -;
#X obj -1405 107 * 4;
#X obj -1406 134 / 3;
#X floatatom -1359 195 5 0 0 0 - - -;
#X obj -1363 106 * 3;
#X obj -1364 133 / 2;
#X floatatom -1310 193 5 0 0 0 - - -;
#X obj -1314 104 * 9;
#X obj -1315 131 / 5;
#X obj -1277 107 * 2;
#X floatatom -1267 191 5 0 0 0 - - -;
#X obj -1500 221 i;
#X obj -1451 222 i;
#X obj -1412 221 i;
#X obj -1368 224 i;
#X obj -1325 222 i;
#X obj -1285 221 i;
#X floatatom -1471 294 5 0 0 0 - - -;
#X obj -1619 91 random 6;
#X obj -1616 129 select 0 1 2 3 4 5;
#X obj -1622 53 bng 15 250 50 0 empty empty empty 17 7 0 10 -262144
-1 -1;
#X obj -1630 20 inlet;
#X obj -1589 333 outlet;
#X obj -1479 42 r foo;
#X connect 0 0 1 0;
#X connect 0 0 3 0;
#X connect 0 0 7 0;
#X connect 0 0 10 0;
#X connect 0 0 13 0;
#X connect 0 0 15 0;
#X connect 1 0 2 0;
#X connect 2 0 17 1;
#X connect 3 0 4 0;
#X connect 4 0 5 0;
#X connect 5 0 18 1;
#X connect 6 0 19 1;
#X connect 7 0 8 0;
#X connect 8 0 6 0;
#X connect 9 0 20 1;
#X connect 10 0 11 0;
#X connect 11 0 9 0;
#X connect 12 0 21 1;
#X connect 13 0 14 0;
#X connect 14 0 12 0;
#X connect 15 0 16 0;
#X connect 16 0 22 1;
#X connect 17 0 23 0;
#X connect 18 0 23 0;
#X connect 19 0 23 0;
#X connect 20 0 23 0;
#X connect 21 0 23 0;
#X connect 22 0 23 0;
#X connect 23 0 28 0;
#X connect 24 0 25 0;
#X connect 25 0 17 0;
#X connect 25 1 18 0;
#X connect 25 2 19 0;
#X connect 25 3 20 0;
#X connect 25 4 21 0;
#X connect 25 5 22 0;
#X connect 26 0 24 0;
#X connect 27 0 26 0;
#X connect 29 0 0 0;
#X restore 229 236 pd penta;
#X obj 229 215 bng 15 250 50 0 empty empty empty 17 7 0 10 -262144
-1 -1;
#X floatatom 229 259 5 0 0 0 - - -;
#N canvas 432 120 542 403 penta 0;
#X floatatom -1483 69 5 0 0 0 - - -;
#X obj -1483 106 * 1;
#X floatatom -1478 196 5 0 0 0 - - -;
#X obj -1443 107 * 6;
#X obj -1444 134 / 5;
#X floatatom -1439 196 5 0 0 0 - - -;
#X floatatom -1401 196 5 0 0 0 - - -;
#X obj -1405 107 * 4;
#X obj -1406 134 / 3;
#X floatatom -1359 195 5 0 0 0 - - -;
#X obj -1363 106 * 3;
#X obj -1364 133 / 2;
#X floatatom -1310 193 5 0 0 0 - - -;
#X obj -1314 104 * 9;
#X obj -1315 131 / 5;
#X obj -1277 107 * 2;
#X floatatom -1267 191 5 0 0 0 - - -;
#X obj -1500 221 i;
#X obj -1451 222 i;
#X obj -1412 221 i;
#X obj -1368 224 i;
#X obj -1325 222 i;
#X obj -1285 221 i;
#X floatatom -1471 294 5 0 0 0 - - -;
#X obj -1619 91 random 6;
#X obj -1616 129 select 0 1 2 3 4 5;
#X obj -1622 53 bng 15 250 50 0 empty empty empty 17 7 0 10 -262144
-1 -1;
#X obj -1630 20 inlet;
#X obj -1589 333 outlet;
#X obj -1479 42 r foo;
#X connect 0 0 1 0;
#X connect 0 0 3 0;
#X connect 0 0 7 0;
#X connect 0 0 10 0;
#X connect 0 0 13 0;
#X connect 0 0 15 0;
#X connect 1 0 2 0;
#X connect 2 0 17 1;
#X connect 3 0 4 0;
#X connect 4 0 5 0;
#X connect 5 0 18 1;
#X connect 6 0 19 1;
#X connect 7 0 8 0;
#X connect 8 0 6 0;
#X connect 9 0 20 1;
#X connect 10 0 11 0;
#X connect 11 0 9 0;
#X connect 12 0 21 1;
#X connect 13 0 14 0;
#X connect 14 0 12 0;
#X connect 15 0 16 0;
#X connect 16 0 22 1;
#X connect 17 0 23 0;
#X connect 18 0 23 0;
#X connect 19 0 23 0;
#X connect 20 0 23 0;
#X connect 21 0 23 0;
#X connect 22 0 23 0;
#X connect 23 0 28 0;
#X connect 24 0 25 0;
#X connect 25 0 17 0;
#X connect 25 1 18 0;
#X connect 25 2 19 0;
#X connect 25 3 20 0;
#X connect 25 4 21 0;
#X connect 25 5 22 0;
#X connect 26 0 24 0;
#X connect 27 0 26 0;
#X connect 29 0 0 0;
#X restore 307 236 pd penta;
#X obj 307 215 bng 15 250 50 0 empty empty empty 17 7 0 10 -262144
-1 -1;
#X floatatom 307 259 5 0 0 0 - - -;
#N canvas 432 120 542 403 penta 0;
#X floatatom -1483 69 5 0 0 0 - - -;
#X obj -1483 106 * 1;
#X floatatom -1478 196 5 0 0 0 - - -;
#X obj -1443 107 * 6;
#X obj -1444 134 / 5;
#X floatatom -1439 196 5 0 0 0 - - -;
#X floatatom -1401 196 5 0 0 0 - - -;
#X obj -1405 107 * 4;
#X obj -1406 134 / 3;
#X floatatom -1359 195 5 0 0 0 - - -;
#X obj -1363 106 * 3;
#X obj -1364 133 / 2;
#X floatatom -1310 193 5 0 0 0 - - -;
#X obj -1314 104 * 9;
#X obj -1315 131 / 5;
#X obj -1277 107 * 2;
#X floatatom -1267 191 5 0 0 0 - - -;
#X obj -1500 221 i;
#X obj -1451 222 i;
#X obj -1412 221 i;
#X obj -1368 224 i;
#X obj -1325 222 i;
#X obj -1285 221 i;
#X floatatom -1471 294 5 0 0 0 - - -;
#X obj -1619 91 random 6;
#X obj -1616 129 select 0 1 2 3 4 5;
#X obj -1622 53 bng 15 250 50 0 empty empty empty 17 7 0 10 -262144
-1 -1;
#X obj -1630 20 inlet;
#X obj -1589 333 outlet;
#X obj -1479 42 r foo;
#X connect 0 0 1 0;
#X connect 0 0 3 0;
#X connect 0 0 7 0;
#X connect 0 0 10 0;
#X connect 0 0 13 0;
#X connect 0 0 15 0;
#X connect 1 0 2 0;
#X connect 2 0 17 1;
#X connect 3 0 4 0;
#X connect 4 0 5 0;
#X connect 5 0 18 1;
#X connect 6 0 19 1;
#X connect 7 0 8 0;
#X connect 8 0 6 0;
#X connect 9 0 20 1;
#X connect 10 0 11 0;
#X connect 11 0 9 0;
#X connect 12 0 21 1;
#X connect 13 0 14 0;
#X connect 14 0 12 0;
#X connect 15 0 16 0;
#X connect 16 0 22 1;
#X connect 17 0 23 0;
#X connect 18 0 23 0;
#X connect 19 0 23 0;
#X connect 20 0 23 0;
#X connect 21 0 23 0;
#X connect 22 0 23 0;
#X connect 23 0 28 0;
#X connect 24 0 25 0;
#X connect 25 0 17 0;
#X connect 25 1 18 0;
#X connect 25 2 19 0;
#X connect 25 3 20 0;
#X connect 25 4 21 0;
#X connect 25 5 22 0;
#X connect 26 0 24 0;
#X connect 27 0 26 0;
#X connect 29 0 0 0;
#X restore 383 236 pd penta;
#X obj 383 215 bng 15 250 50 0 empty empty empty 17 7 0 10 -262144
-1 -1;
#X floatatom 383 259 5 0 0 0 - - -;
#N canvas 432 120 542 403 penta 0;
#X floatatom -1483 69 5 0 0 0 - - -;
#X obj -1483 106 * 1;
#X floatatom -1478 196 5 0 0 0 - - -;
#X obj -1443 107 * 6;
#X obj -1444 134 / 5;
#X floatatom -1439 196 5 0 0 0 - - -;
#X floatatom -1401 196 5 0 0 0 - - -;
#X obj -1405 107 * 4;
#X obj -1406 134 / 3;
#X floatatom -1359 195 5 0 0 0 - - -;
#X obj -1363 106 * 3;
#X obj -1364 133 / 2;
#X floatatom -1310 193 5 0 0 0 - - -;
#X obj -1314 104 * 9;
#X obj -1315 131 / 5;
#X obj -1277 107 * 2;
#X floatatom -1267 191 5 0 0 0 - - -;
#X obj -1500 221 i;
#X obj -1451 222 i;
#X obj -1412 221 i;
#X obj -1368 224 i;
#X obj -1325 222 i;
#X obj -1285 221 i;
#X floatatom -1471 294 5 0 0 0 - - -;
#X obj -1619 91 random 6;
#X obj -1616 129 select 0 1 2 3 4 5;
#X obj -1622 53 bng 15 250 50 0 empty empty empty 17 7 0 10 -262144
-1 -1;
#X obj -1630 20 inlet;
#X obj -1589 333 outlet;
#X obj -1479 42 r foo;
#X connect 0 0 1 0;
#X connect 0 0 3 0;
#X connect 0 0 7 0;
#X connect 0 0 10 0;
#X connect 0 0 13 0;
#X connect 0 0 15 0;
#X connect 1 0 2 0;
#X connect 2 0 17 1;
#X connect 3 0 4 0;
#X connect 4 0 5 0;
#X connect 5 0 18 1;
#X connect 6 0 19 1;
#X connect 7 0 8 0;
#X connect 8 0 6 0;
#X connect 9 0 20 1;
#X connect 10 0 11 0;
#X connect 11 0 9 0;
#X connect 12 0 21 1;
#X connect 13 0 14 0;
#X connect 14 0 12 0;
#X connect 15 0 16 0;
#X connect 16 0 22 1;
#X connect 17 0 23 0;
#X connect 18 0 23 0;
#X connect 19 0 23 0;
#X connect 20 0 23 0;
#X connect 21 0 23 0;
#X connect 22 0 23 0;
#X connect 23 0 28 0;
#X connect 24 0 25 0;
#X connect 25 0 17 0;
#X connect 25 1 18 0;
#X connect 25 2 19 0;
#X connect 25 3 20 0;
#X connect 25 4 21 0;
#X connect 25 5 22 0;
#X connect 26 0 24 0;
#X connect 27 0 26 0;
#X connect 29 0 0 0;
#X restore 468 236 pd penta;
#X obj 468 215 bng 15 250 50 0 empty empty empty 17 7 0 10 -262144
-1 -1;
#X floatatom 468 259 5 0 0 0 - - -;
#N canvas 432 120 542 403 penta 0;
#X floatatom -1483 69 5 0 0 0 - - -;
#X obj -1483 106 * 1;
#X floatatom -1478 196 5 0 0 0 - - -;
#X obj -1443 107 * 6;
#X obj -1444 134 / 5;
#X floatatom -1439 196 5 0 0 0 - - -;
#X floatatom -1401 196 5 0 0 0 - - -;
#X obj -1405 107 * 4;
#X obj -1406 134 / 3;
#X floatatom -1359 195 5 0 0 0 - - -;
#X obj -1363 106 * 3;
#X obj -1364 133 / 2;
#X floatatom -1310 193 5 0 0 0 - - -;
#X obj -1314 104 * 9;
#X obj -1315 131 / 5;
#X obj -1277 107 * 2;
#X floatatom -1267 191 5 0 0 0 - - -;
#X obj -1500 221 i;
#X obj -1451 222 i;
#X obj -1412 221 i;
#X obj -1368 224 i;
#X obj -1325 222 i;
#X obj -1285 221 i;
#X floatatom -1471 294 5 0 0 0 - - -;
#X obj -1619 91 random 6;
#X obj -1616 129 select 0 1 2 3 4 5;
#X obj -1622 53 bng 15 250 50 0 empty empty empty 17 7 0 10 -262144
-1 -1;
#X obj -1630 20 inlet;
#X obj -1589 333 outlet;
#X obj -1479 42 r foo;
#X connect 0 0 1 0;
#X connect 0 0 3 0;
#X connect 0 0 7 0;
#X connect 0 0 10 0;
#X connect 0 0 13 0;
#X connect 0 0 15 0;
#X connect 1 0 2 0;
#X connect 2 0 17 1;
#X connect 3 0 4 0;
#X connect 4 0 5 0;
#X connect 5 0 18 1;
#X connect 6 0 19 1;
#X connect 7 0 8 0;
#X connect 8 0 6 0;
#X connect 9 0 20 1;
#X connect 10 0 11 0;
#X connect 11 0 9 0;
#X connect 12 0 21 1;
#X connect 13 0 14 0;
#X connect 14 0 12 0;
#X connect 15 0 16 0;
#X connect 16 0 22 1;
#X connect 17 0 23 0;
#X connect 18 0 23 0;
#X connect 19 0 23 0;
#X connect 20 0 23 0;
#X connect 21 0 23 0;
#X connect 22 0 23 0;
#X connect 23 0 28 0;
#X connect 24 0 25 0;
#X connect 25 0 17 0;
#X connect 25 1 18 0;
#X connect 25 2 19 0;
#X connect 25 3 20 0;
#X connect 25 4 21 0;
#X connect 25 5 22 0;
#X connect 26 0 24 0;
#X connect 27 0 26 0;
#X connect 29 0 0 0;
#X restore 553 236 pd penta;
#X obj 553 215 bng 15 250 50 0 empty empty empty 17 7 0 10 -262144
-1 -1;
#X floatatom 553 259 5 0 0 0 - - -;
#N canvas 432 120 542 403 penta 0;
#X floatatom -1483 69 5 0 0 0 - - -;
#X obj -1483 106 * 1;
#X floatatom -1478 196 5 0 0 0 - - -;
#X obj -1443 107 * 6;
#X obj -1444 134 / 5;
#X floatatom -1439 196 5 0 0 0 - - -;
#X floatatom -1401 196 5 0 0 0 - - -;
#X obj -1405 107 * 4;
#X obj -1406 134 / 3;
#X floatatom -1359 195 5 0 0 0 - - -;
#X obj -1363 106 * 3;
#X obj -1364 133 / 2;
#X floatatom -1310 193 5 0 0 0 - - -;
#X obj -1314 104 * 9;
#X obj -1315 131 / 5;
#X obj -1277 107 * 2;
#X floatatom -1267 191 5 0 0 0 - - -;
#X obj -1500 221 i;
#X obj -1451 222 i;
#X obj -1412 221 i;
#X obj -1368 224 i;
#X obj -1325 222 i;
#X obj -1285 221 i;
#X floatatom -1471 294 5 0 0 0 - - -;
#X obj -1619 91 random 6;
#X obj -1616 129 select 0 1 2 3 4 5;
#X obj -1622 53 bng 15 250 50 0 empty empty empty 17 7 0 10 -262144
-1 -1;
#X obj -1630 20 inlet;
#X obj -1589 333 outlet;
#X obj -1479 42 r foo;
#X connect 0 0 1 0;
#X connect 0 0 3 0;
#X connect 0 0 7 0;
#X connect 0 0 10 0;
#X connect 0 0 13 0;
#X connect 0 0 15 0;
#X connect 1 0 2 0;
#X connect 2 0 17 1;
#X connect 3 0 4 0;
#X connect 4 0 5 0;
#X connect 5 0 18 1;
#X connect 6 0 19 1;
#X connect 7 0 8 0;
#X connect 8 0 6 0;
#X connect 9 0 20 1;
#X connect 10 0 11 0;
#X connect 11 0 9 0;
#X connect 12 0 21 1;
#X connect 13 0 14 0;
#X connect 14 0 12 0;
#X connect 15 0 16 0;
#X connect 16 0 22 1;
#X connect 17 0 23 0;
#X connect 18 0 23 0;
#X connect 19 0 23 0;
#X connect 20 0 23 0;
#X connect 21 0 23 0;
#X connect 22 0 23 0;
#X connect 23 0 28 0;
#X connect 24 0 25 0;
#X connect 25 0 17 0;
#X connect 25 1 18 0;
#X connect 25 2 19 0;
#X connect 25 3 20 0;
#X connect 25 4 21 0;
#X connect 25 5 22 0;
#X connect 26 0 24 0;
#X connect 27 0 26 0;
#X connect 29 0 0 0;
#X restore 630 236 pd penta;
#X obj 630 215 bng 15 250 50 0 empty empty empty 17 7 0 10 -262144
-1 -1;
#X floatatom 631 259 5 0 0 0 - - -;
#X text 274 10 esta valor se transmite como la frecuencia fundamental
a cada uno de mis subparches;
#X obj 922 140 r foo;
#X text 782 87 esta es la construccion dentro de mis subparches \,
que me permite generar notas aleatorias siguiendo parámetros de una
relación armonica en la escala pentatónica menor;
#X text 309 175 al enviar un bang al sub parche penta \, este nos regresará
una nota aleatoria en la escala pentatónica menor;
#X obj 175 437 gate;
#X obj 174 414 tgl 15 0 empty empty empty 17 7 0 10 -262144 -1 -1 0
1;
#X obj 175 463 bng 15 250 50 0 empty empty empty 17 7 0 10 -262144
-1 -1;
#X obj 209 437 gate;
#X obj 208 414 tgl 15 0 empty empty empty 17 7 0 10 -262144 -1 -1 0
1;
#X obj 209 463 bng 15 250 50 0 empty empty empty 17 7 0 10 -262144
-1 -1;
#X obj 243 437 gate;
#X obj 242 414 tgl 15 0 empty empty empty 17 7 0 10 -262144 -1 -1 0
1;
#X obj 243 463 bng 15 250 50 0 empty empty empty 17 7 0 10 -262144
-1 -1;
#X obj 277 436 gate;
#X obj 276 413 tgl 15 0 empty empty empty 17 7 0 10 -262144 -1 -1 0
1;
#X obj 277 462 bng 15 250 50 0 empty empty empty 17 7 0 10 -262144
-1 -1;
#X obj 311 437 gate;
#X obj 310 414 tgl 15 0 empty empty empty 17 7 0 10 -262144 -1 -1 0
1;
#X obj 311 463 bng 15 250 50 0 empty empty empty 17 7 0 10 -262144
-1 -1;
#X obj 345 437 gate;
#X obj 344 414 tgl 15 0 empty empty empty 17 7 0 10 -262144 -1 -1 0
1;
#X obj 345 463 bng 15 250 50 0 empty empty empty 17 7 0 10 -262144
-1 -1;
#X obj 379 437 gate;
#X obj 378 414 tgl 15 0 empty empty empty 17 7 0 10 -262144 -1 -1 0
1;
#X obj 379 463 bng 15 250 50 0 empty empty empty 17 7 0 10 -262144
-1 -1;
#X obj 413 436 gate;
#X obj 412 413 tgl 15 0 empty empty empty 17 7 0 10 -262144 -1 -1 0
1;
#X obj 413 462 bng 15 250 50 0 empty empty empty 17 7 0 10 -262144
-1 -1;
#X obj 178 527 click~;
#X obj 177 573 *~ 20;
#X text 465 442 se el toggle conectado al objeto gate está encendido
\, permitirá que el bang pase al objeto click~;
#X connect 0 0 3 0;
#X connect 1 0 0 1;
#X connect 2 0 0 0;
#X connect 3 0 4 0;
#X connect 4 0 5 0;
#X connect 5 0 6 0;
#X connect 6 0 7 0;
#X connect 6 1 8 0;
#X connect 6 2 9 0;
#X connect 6 3 10 0;
#X connect 6 4 11 0;
#X connect 6 5 12 0;
#X connect 6 6 13 0;
#X connect 6 7 14 0;
#X connect 7 0 48 0;
#X connect 7 0 83 1;
#X connect 8 0 49 0;
#X connect 8 0 86 1;
#X connect 9 0 50 0;
#X connect 9 0 89 1;
#X connect 10 0 51 0;
#X connect 10 0 92 1;
#X connect 11 0 52 0;
#X connect 11 0 95 1;
#X connect 12 0 53 0;
#X connect 12 0 98 1;
#X connect 13 0 54 0;
#X connect 13 0 101 1;
#X connect 14 0 55 0;
#X connect 14 0 104 1;
#X connect 15 0 16 0;
#X connect 16 0 17 0;
#X connect 16 0 17 1;
#X connect 18 0 19 0;
#X connect 18 0 21 0;
#X connect 18 0 25 0;
#X connect 18 0 28 0;
#X connect 18 0 31 0;
#X connect 18 0 33 0;
#X connect 19 0 20 0;
#X connect 20 0 35 1;
#X connect 21 0 22 0;
#X connect 22 0 23 0;
#X connect 23 0 36 1;
#X connect 24 0 37 1;
#X connect 25 0 26 0;
#X connect 26 0 24 0;
#X connect 27 0 38 1;
#X connect 28 0 29 0;
#X connect 29 0 27 0;
#X connect 30 0 39 1;
#X connect 31 0 32 0;
#X connect 32 0 30 0;
#X connect 33 0 34 0;
#X connect 34 0 40 1;
#X connect 35 0 41 0;
#X connect 36 0 41 0;
#X connect 37 0 41 0;
#X connect 38 0 41 0;
#X connect 39 0 41 0;
#X connect 40 0 41 0;
#X connect 42 0 43 0;
#X connect 43 0 35 0;
#X connect 43 1 36 0;
#X connect 43 2 37 0;
#X connect 43 3 38 0;
#X connect 43 4 39 0;
#X connect 43 5 40 0;
#X connect 44 0 42 0;
#X connect 45 0 47 0;
#X connect 46 0 45 0;
#X connect 47 0 48 1;
#X connect 48 0 15 0;
#X connect 49 0 15 0;
#X connect 50 0 15 0;
#X connect 51 0 15 0;
#X connect 52 0 15 0;
#X connect 53 0 15 0;
#X connect 54 0 15 0;
#X connect 55 0 15 0;
#X connect 57 0 56 0;
#X connect 58 0 60 0;
#X connect 59 0 58 0;
#X connect 60 0 49 1;
#X connect 61 0 63 0;
#X connect 62 0 61 0;
#X connect 63 0 50 1;
#X connect 64 0 66 0;
#X connect 65 0 64 0;
#X connect 66 0 51 1;
#X connect 67 0 69 0;
#X connect 68 0 67 0;
#X connect 69 0 52 1;
#X connect 70 0 72 0;
#X connect 71 0 70 0;
#X connect 72 0 53 1;
#X connect 73 0 75 0;
#X connect 74 0 73 0;
#X connect 75 0 54 1;
#X connect 76 0 78 0;
#X connect 77 0 76 0;
#X connect 78 0 55 1;
#X connect 80 0 18 0;
#X connect 83 0 85 0;
#X connect 84 0 83 0;
#X connect 85 0 107 0;
#X connect 86 0 88 0;
#X connect 87 0 86 0;
#X connect 88 0 107 0;
#X connect 89 0 91 0;
#X connect 90 0 89 0;
#X connect 91 0 107 0;
#X connect 92 0 94 0;
#X connect 93 0 92 0;
#X connect 94 0 107 0;
#X connect 95 0 97 0;
#X connect 96 0 95 0;
#X connect 97 0 107 0;
#X connect 98 0 100 0;
#X connect 99 0 98 0;
#X connect 100 0 107 0;
#X connect 101 0 103 0;
#X connect 102 0 101 0;
#X connect 103 0 107 0;
#X connect 104 0 106 0;
#X connect 105 0 104 0;
#X connect 106 0 107 0;
#X connect 107 0 108 0;
#X connect 108 0 17 0;
#X connect 108 0 17 1;
