#N canvas 67 52 805 624 10;
#X obj 120 182 vline~;
#X obj 49 531 dac~;
#X obj 57 48 osc~ 220;
#X obj 57 229 *~;
#X msg 129 93 1 1000;
#X msg 184 93 0 1000;
#X obj 185 62 delay 2000;
#X obj 128 27 bng 15 250 50 0 empty empty empty 17 7 0 10 -262144 -1
-1;
#X msg 284 94 0 0 \, 1 20 0 \, 0 20 200;
#X obj 53 479 *~;
#X obj 131 444 vline~;
#X msg 131 420 \$1 20;
#X obj 131 275 vsl 15 128 0 1 0 0 empty empty empty 0 -9 0 10 -262144
-1 -1 0 1;
#X text 174 184 vline produce una rampa lineal que podemos utilizar
como una envolvente;
#X text 186 31 el delay produce un retraso de 2000ms;
#X text 420 97 estos mensaje producen envolventes completas;
#X msg 283 121 0 0 \, 1 200 0 \, 0 200 200;
#X msg 284 146 0 0 \, 1 400 0 \, 0 400 1000;
#X text 175 344 este control de la ganancia me permite eliminar los
pops;
#X floatatom 186 400 5 0 0 0 - - -;
#X text 221 398 <--recuerda que los parámetros del vslider se modificaron
;
#X connect 0 0 3 1;
#X connect 2 0 3 0;
#X connect 3 0 9 0;
#X connect 4 0 0 0;
#X connect 5 0 0 0;
#X connect 6 0 5 0;
#X connect 7 0 4 0;
#X connect 7 0 6 0;
#X connect 8 0 0 0;
#X connect 9 0 1 0;
#X connect 9 0 1 1;
#X connect 10 0 9 1;
#X connect 11 0 10 0;
#X connect 12 0 11 0;
#X connect 12 0 19 0;
#X connect 16 0 0 0;
#X connect 17 0 0 0;
